<?xml version="1.0" standalone="no"?>
<!DOCTYPE svg PUBLIC "-//W3C//DTD SVG 20010904//EN"
 "http://www.w3.org/TR/2001/REC-SVG-20010904/DTD/svg10.dtd">
<svg version="1.0" xmlns="http://www.w3.org/2000/svg"
 width="700.000000pt" height="700.000000pt" viewBox="0 0 700.000000 700.000000"
 preserveAspectRatio="xMidYMid meet">
<metadata>
Created by potrace 1.11, written by Peter Selinger 2001-2013
</metadata>
<g transform="translate(0.000000,700.000000) scale(0.100000,-0.100000)"
fill="#000000" stroke="none">
<path d="M1580 6404 c-263 -39 -456 -137 -652 -331 -229 -226 -341 -496 -342
-823 0 -81 11 -217 19 -229 2 -4 7 -23 10 -42 19 -111 92 -274 176 -391 152
-214 372 -378 604 -451 138 -43 224 -51 592 -51 298 -1 343 -3 344 -16 5 -75
2 -1135 -3 -1143 -4 -7 -118 -11 -355 -12 -196 -1 -379 -7 -419 -13 -293 -46
-577 -228 -764 -490 -287 -403 -272 -984 36 -1372 229 -289 536 -446 887 -454
343 -8 629 106 864 346 176 178 268 349 319 593 14 65 17 147 19 436 1 196 5
360 8 365 6 10 1143 11 1154 1 3 -4 7 -163 8 -355 2 -339 8 -417 39 -535 98
-366 406 -684 772 -800 78 -25 96 -28 219 -45 81 -11 247 -7 337 8 244 41 451
153 636 344 123 128 211 267 264 416 81 229 82 538 4 768 -126 367 -459 671
-831 758 -89 21 -245 30 -532 29 -208 0 -323 4 -324 10 -5 49 -2 1140 3 1148
4 7 120 11 360 12 194 1 369 5 388 9 41 7 143 29 150 31 3 1 20 6 38 10 18 4
35 12 38 16 3 5 11 9 19 9 18 0 139 58 195 94 184 118 347 297 438 481 40 81
85 211 96 275 3 19 8 53 12 75 4 22 7 99 7 170 -1 114 -5 156 -28 274 -10 53
-50 160 -87 236 -79 159 -224 329 -377 439 -256 184 -543 244 -905 190 -134
-20 -337 -111 -461 -207 -196 -152 -343 -353 -413 -567 -50 -153 -56 -216 -57
-617 0 -215 -4 -333 -10 -334 -70 -6 -1148 -2 -1152 5 -3 5 -7 167 -8 360 -2
368 -7 416 -52 566 -106 355 -421 665 -778 768 -153 44 -355 59 -505 36z m339
-595 c233 -74 398 -282 410 -515 5 -83 7 -574 3 -604 l-4 -25 -311 1 c-337 1
-375 4 -462 34 -86 30 -153 74 -225 150 -107 111 -160 243 -161 397 0 81 1 87
20 163 44 175 209 342 394 400 89 28 247 27 336 -1z m3514 -5 c85 -27 158 -74
232 -149 112 -112 165 -244 165 -407 0 -161 -56 -295 -169 -408 -98 -97 -207
-153 -326 -167 -54 -6 -617 -10 -650 -5 -20 3 -20 11 -19 330 2 349 7 399 56
502 66 138 203 259 345 304 109 36 257 36 366 0z m-1358 -1723 c12 -1 13
-1146 1 -1158 -9 -9 -1126 -11 -1146 -2 -13 6 -15 80 -15 579 1 406 4 573 12
578 8 5 1098 8 1148 3z m-1747 -1758 c4 -6 6 -155 6 -330 -1 -291 -3 -325 -23
-396 -28 -104 -72 -179 -151 -257 -88 -89 -191 -144 -305 -165 -61 -10 -192
-5 -250 10 -164 43 -317 172 -387 325 -49 106 -63 269 -33 385 61 236 283 423
515 434 30 2 56 3 57 4 1 1 128 2 283 1 187 -1 284 -4 288 -11z m3045 -3 c206
-42 387 -216 442 -425 16 -62 21 -181 9 -250 -9 -55 -47 -154 -80 -206 -39
-63 -140 -159 -204 -195 -55 -31 -130 -59 -185 -69 -49 -9 -188 -6 -222 4 -18
5 -33 8 -33 6 0 -8 -118 44 -160 70 -59 37 -159 139 -193 198 -46 78 -64 134
-75 237 -8 75 -8 623 1 636 8 14 626 9 700 -6z"/>
</g>
</svg>
