<?xml version="1.0" standalone="no"?>
<!DOCTYPE svg PUBLIC "-//W3C//DTD SVG 20010904//EN"
 "http://www.w3.org/TR/2001/REC-SVG-20010904/DTD/svg10.dtd">
<svg version="1.0" xmlns="http://www.w3.org/2000/svg"
 width="700.000000pt" height="700.000000pt" viewBox="0 0 700.000000 700.000000"
 preserveAspectRatio="xMidYMid meet">
<metadata>
Created by potrace 1.11, written by Peter Selinger 2001-2013
</metadata>
<g transform="translate(0.000000,700.000000) scale(0.100000,-0.100000)"
fill="#000000" stroke="none">
<path d="M1606 6409 c-458 -50 -867 -406 -987 -859 -31 -121 -44 -355 -25
-476 37 -231 124 -416 278 -589 154 -173 321 -284 523 -348 148 -46 202 -51
602 -52 215 0 333 -4 334 -10 4 -56 2 -1140 -2 -1147 -4 -7 -135 -11 -370 -13
-236 -2 -383 -7 -419 -14 -30 -7 -66 -15 -80 -17 -38 -8 -158 -52 -220 -81
-227 -109 -467 -360 -565 -591 -117 -277 -120 -618 -9 -899 117 -296 391 -558
694 -665 241 -84 538 -84 781 0 360 126 659 458 744 827 26 109 26 120 30 495
2 195 4 357 4 360 1 7 1150 4 1157 -3 4 -4 8 -167 9 -364 2 -197 6 -371 9
-388 39 -190 73 -288 142 -405 156 -266 422 -473 700 -546 253 -66 553 -47
761 47 24 10 45 19 49 19 3 0 36 18 73 39 276 162 488 432 560 716 48 187 48
414 0 603 -85 342 -362 656 -694 787 -178 70 -235 78 -653 80 -194 2 -356 5
-359 9 -11 11 -9 1156 2 1157 6 0 168 2 360 3 353 3 407 7 545 46 372 102 701
439 800 818 33 127 43 312 26 464 -27 242 -147 478 -337 666 -186 185 -399
291 -659 330 -84 12 -302 5 -390 -12 -422 -84 -771 -404 -891 -816 -36 -124
-42 -191 -44 -548 -1 -194 -5 -355 -8 -358 -3 -3 -264 -6 -581 -7 -506 -2
-576 0 -577 13 0 8 -2 170 -3 360 -4 402 -12 472 -81 645 -114 288 -359 531
-660 655 -146 61 -382 89 -569 69z m313 -600 c155 -49 286 -162 356 -306 34
-67 51 -136 54 -214 7 -138 6 -611 -1 -615 -9 -6 -646 -6 -673 0 -239 49 -411
208 -469 433 -15 59 -22 193 -12 238 44 198 138 329 306 422 117 65 309 84
439 42z m3500 0 c61 -20 131 -52 131 -61 0 -4 7 -8 15 -8 29 0 169 -152 202
-220 66 -135 81 -289 43 -428 -58 -207 -236 -373 -444 -413 -55 -10 -684 -15
-694 -5 -3 4 -5 152 -5 329 1 344 6 395 55 497 66 138 202 259 346 305 102 33
256 35 351 4z m-1344 -1728 c14 -1 12 -1151 -2 -1159 -8 -5 -1124 -8 -1153 -3
-7 1 -5 1145 2 1157 5 7 1077 12 1153 5z m-1748 -1755 c4 -3 6 -152 6 -330 -1
-297 -3 -329 -22 -401 -55 -199 -218 -360 -417 -410 -189 -47 -396 7 -537 138
-130 123 -189 259 -188 431 2 200 101 379 273 491 66 43 180 80 258 84 30 2
56 3 57 4 5 6 564 -1 570 -7z m3050 -6 c115 -24 203 -76 299 -178 124 -130
178 -312 148 -497 -9 -61 -49 -160 -85 -213 -40 -58 -129 -145 -182 -179 -124
-78 -312 -105 -459 -65 -42 12 -91 31 -110 42 -18 11 -43 24 -56 30 -44 19
-166 155 -199 221 -60 121 -65 160 -65 509 0 373 -2 338 19 342 46 9 637 -1
690 -12z"/>
</g>
</svg>
